<svg xmlns="http://www.w3.org/2000/svg" xmlns:xlink="http://www.w3.org/1999/xlink" width="1920" zoomAndPan="magnify" viewBox="0 0 1440 809.999993" height="1080" preserveAspectRatio="xMidYMid meet" version="1.0"><defs><g/></defs><g fill="#1d2732" fill-opacity="1"><g transform="translate(654.196965, 416.581357)"><g><path d="M 16.007812 0.617188 C 19.457031 0.617188 21.667969 -0.464844 22.027344 -0.566406 L 21.566406 -2.574219 C 21.308594 -2.417969 19.300781 -1.492188 16.160156 -1.492188 C 11.632812 -1.492188 9.675781 -3.910156 9.675781 -9.007812 L 9.675781 -25.476562 L 22.027344 -25.476562 L 22.027344 -27.484375 L 9.675781 -27.484375 L 9.675781 -33.25 L 8.648438 -33.25 L 0.515625 -26.457031 L 0.515625 -25.632812 L 7.464844 -25.632812 L 7.464844 -8.75 C 7.464844 -2.675781 10.242188 0.617188 16.007812 0.617188 Z M 16.007812 0.617188 "/></g></g></g><g fill="#1d2732" fill-opacity="1"><g transform="translate(677.460356, 416.581357)"><g><path d="M 4.015625 0 L 6.226562 0 L 6.226562 -15.183594 C 6.433594 -21.71875 9.933594 -25.941406 16.109375 -25.941406 C 17.292969 -25.941406 17.757812 -25.890625 18.734375 -25.582031 L 19.042969 -27.742188 C 18.066406 -27.949219 17.449219 -28.050781 16.109375 -28.050781 C 11.273438 -28.050781 7.976562 -25.632812 6.332031 -21.667969 L 6.023438 -21.667969 L 5.300781 -27.484375 L 4.015625 -27.484375 Z M 4.015625 0 "/></g></g></g><g fill="#1d2732" fill-opacity="1"><g transform="translate(697.429815, 416.581357)"><g><path d="M 4.941406 -34.742188 C 5.816406 -34.742188 6.535156 -35.460938 6.535156 -36.390625 C 6.535156 -37.265625 5.816406 -37.984375 4.941406 -37.984375 C 4.066406 -37.984375 3.292969 -37.265625 3.292969 -36.390625 C 3.292969 -35.460938 4.066406 -34.742188 4.941406 -34.742188 Z M 3.808594 0 L 6.074219 0 L 6.074219 -27.484375 L 3.808594 -27.484375 Z M 3.808594 0 "/></g></g></g><g fill="#1d2732" fill-opacity="1"><g transform="translate(707.260137, 416.581357)"><g><path d="M 18.734375 0.617188 C 26.558594 0.617188 32.785156 -5.25 32.785156 -13.742188 C 32.785156 -22.183594 26.558594 -28.050781 18.734375 -28.050781 C 13.484375 -28.050781 8.902344 -25.375 6.535156 -21.050781 L 6.226562 -21.050781 L 6.226562 -40.09375 L 4.015625 -40.09375 L 4.015625 0 L 6.226562 0 L 6.226562 -6.433594 L 6.535156 -6.433594 C 8.902344 -2.058594 13.484375 0.617188 18.734375 0.617188 Z M 18.425781 -1.441406 C 11.683594 -1.441406 6.277344 -6.484375 6.277344 -13.742188 C 6.277344 -21 11.683594 -25.992188 18.425781 -25.992188 C 25.117188 -25.992188 30.519531 -21 30.519531 -13.742188 C 30.519531 -6.484375 25.117188 -1.441406 18.425781 -1.441406 Z M 18.425781 -1.441406 "/></g></g></g><g fill="#1d2732" fill-opacity="1"><g transform="translate(742.669897, 416.581357)"><g><path d="M 17.449219 0.617188 C 22.183594 0.617188 26.710938 -0.925781 29.851562 -4.476562 L 28.410156 -6.175781 C 25.734375 -2.984375 21.667969 -1.441406 17.449219 -1.441406 C 10.140625 -1.441406 5.25 -6.023438 4.839844 -12.765625 L 31.292969 -12.765625 L 31.292969 -13.742188 C 31.292969 -22.183594 24.960938 -28.050781 16.933594 -28.050781 C 8.957031 -28.050781 2.574219 -22.183594 2.574219 -13.742188 C 2.574219 -5.25 8.492188 0.617188 17.449219 0.617188 Z M 4.839844 -14.773438 C 5.351562 -21.460938 10.550781 -25.992188 16.933594 -25.992188 C 23.367188 -25.992188 28.566406 -21.460938 29.027344 -14.773438 Z M 4.839844 -14.773438 "/></g></g></g><g fill="#1d2732" fill-opacity="1"><g transform="translate(776.535616, 416.581357)"><g><path d="M 4.632812 0.359375 C 5.714844 0.359375 6.691406 -0.566406 6.691406 -1.699219 C 6.691406 -2.882812 5.714844 -3.757812 4.632812 -3.757812 C 3.601562 -3.757812 2.574219 -2.882812 2.574219 -1.699219 C 2.574219 -0.566406 3.601562 0.359375 4.632812 0.359375 Z M 4.632812 0.359375 "/></g></g></g></svg>